<?xml version="1.0" standalone="no"?>
<!DOCTYPE svg PUBLIC "-//W3C//DTD SVG 20010904//EN"
 "http://www.w3.org/TR/2001/REC-SVG-20010904/DTD/svg10.dtd">
<svg version="1.0" xmlns="http://www.w3.org/2000/svg"
 width="420.000000pt" height="420.000000pt" viewBox="0 0 420.000000 420.000000"
 preserveAspectRatio="xMidYMid meet">
<metadata>
Created by potrace 1.11, written by Peter Selinger 2001-2013
</metadata>
<g transform="translate(0.000000,420.000000) scale(0.100000,-0.100000)"
fill="#000000" stroke="none">
<path d="M1125 2529 c-26 -14 -80 -85 -141 -186 -48 -80 -50 -82 -94 -88 -109
-14 -172 -28 -185 -41 -7 -8 -24 -14 -37 -15 -13 0 -17 -3 -10 -6 7 -3 62 3
123 13 60 9 112 14 116 11 3 -4 -8 -39 -25 -79 -42 -103 -50 -125 -63 -195 -6
-35 -17 -69 -23 -77 -11 -14 -147 -85 -203 -106 -18 -7 -39 -10 -48 -6 -31 12
-9 136 24 136 26 0 105 54 129 87 28 40 37 80 22 98 -7 8 -9 15 -4 15 5 0 1 5
-8 11 -27 15 -79 -14 -127 -71 -47 -56 -101 -163 -101 -200 0 -18 -23 -48 -83
-108 -45 -45 -91 -89 -102 -98 -19 -14 -19 -14 5 -3 14 7 60 46 102 87 l78 75
11 -32 c11 -32 14 -33 54 -29 26 3 80 27 143 62 55 31 103 56 106 56 3 0 4
-31 3 -69 -5 -164 56 -162 316 9 44 29 67 51 67 64 0 17 -2 18 -17 4 -33 -27
-259 -150 -300 -162 -21 -7 -23 -4 -23 31 0 35 33 184 61 272 6 20 31 79 56
132 50 107 53 109 155 109 49 0 50 -1 44 -26 -7 -28 0 -64 14 -64 5 0 16 20
26 45 l17 45 106 2 106 2 -104 3 c-92 3 -103 6 -98 21 35 110 39 152 15 152
-10 0 -34 -52 -55 -122 -13 -45 -15 -47 -39 -38 -14 6 -45 10 -70 10 -24 0
-44 2 -44 4 0 9 74 134 111 188 22 33 36 64 33 73 -7 17 -11 18 -39 4z m-68
-285 c-3 -3 -12 -4 -19 -1 -8 3 -5 6 6 6 11 1 17 -2 13 -5z m-237 -14 c0 -5
-5 -10 -11 -10 -5 0 -7 5 -4 10 3 6 8 10 11 10 2 0 4 -4 4 -10z m-120 -179 c0
-30 -43 -84 -85 -108 -55 -31 -60 -29 -33 19 44 80 118 136 118 89z"/>
<path d="M3434 2502 c-51 -28 -75 -49 -78 -66 -1 -8 -6 -19 -11 -23 -4 -4 -5
-2 -1 5 14 24 -4 11 -43 -30 -97 -105 -173 -215 -240 -348 -53 -105 -120 -301
-136 -397 -10 -67 -10 -73 6 -73 10 0 21 13 28 32 28 80 142 221 235 289 69
51 74 36 15 -44 -35 -46 -45 -55 -66 -51 -23 4 -25 2 -19 -18 3 -13 6 -56 6
-96 0 -58 3 -74 16 -79 24 -9 73 21 145 89 35 33 47 46 26 29 -21 -17 -42 -29
-46 -27 -5 3 -19 -6 -31 -19 -13 -14 -32 -25 -42 -25 -11 0 -17 -4 -14 -8 3
-5 -1 -9 -9 -9 -12 0 -15 16 -15 72 0 68 1 71 30 89 38 22 67 52 87 90 12 24
13 33 2 52 -7 13 -19 24 -26 24 -8 0 -12 -4 -9 -9 3 -5 -1 -12 -10 -15 -9 -4
-13 -2 -8 5 17 28 -46 -20 -123 -94 l-84 -81 36 79 c38 85 38 86 163 183 94
73 239 222 289 298 83 124 36 237 -73 176z m56 4 c0 -2 -9 -6 -20 -9 -11 -3
-18 -1 -14 4 5 9 34 13 34 5z m-70 -29 c0 -2 -10 -12 -22 -23 l-23 -19 19 23
c18 21 26 27 26 19z m94 -13 c10 -25 -27 -84 -112 -180 -76 -86 -243 -246
-250 -240 -4 4 34 73 101 185 59 99 201 251 233 251 12 0 25 -7 28 -16z m-238
-144 c-20 -22 -36 -37 -36 -34 0 11 62 85 68 80 2 -3 -12 -24 -32 -46z m195
-2 c-38 -55 -119 -140 -196 -209 -73 -65 -39 -24 73 90 46 46 97 104 114 128
17 23 33 41 36 39 2 -3 -10 -24 -27 -48z m-261 -261 c0 -2 -15 -16 -32 -33
l-33 -29 29 33 c28 30 36 37 36 29z m30 -200 c0 -2 -12 -14 -27 -28 l-28 -24
24 28 c23 25 31 32 31 24z"/>
<path d="M685 2462 c-16 -2 -42 -14 -57 -27 -16 -13 -34 -22 -41 -19 -20 7
-137 -111 -194 -196 -166 -247 -246 -554 -159 -612 20 -14 28 -8 12 8 -20 19
-21 99 -2 135 7 14 16 39 20 55 20 80 49 125 100 158 103 67 348 312 382 384
32 68 3 123 -61 114z m46 -34 c5 -52 -26 -108 -108 -194 -78 -83 -277 -256
-281 -244 -2 5 11 35 29 67 98 178 233 346 299 372 35 14 60 13 61 -1z"/>
<path d="M4098 2427 c-14 -7 -36 -21 -48 -32 -27 -25 -122 -145 -115 -145 3 0
-5 -12 -19 -27 -14 -15 -23 -30 -20 -35 3 -5 1 -7 -4 -6 -6 2 -24 -23 -41 -54
-17 -32 -27 -58 -22 -58 11 0 -65 -178 -83 -196 -6 -6 -51 -32 -101 -57 -164
-82 -185 -84 -185 -18 0 50 18 91 40 91 25 0 104 54 128 87 28 40 37 80 22 98
-7 8 -9 15 -4 15 5 0 1 5 -8 11 -44 25 -143 -66 -198 -183 -17 -35 -30 -75
-30 -90 0 -16 -3 -28 -8 -28 -4 0 -13 -10 -21 -22 -14 -23 -13 -23 7 -5 20 18
20 18 32 -19 12 -35 13 -36 54 -32 27 3 83 28 152 66 59 33 110 60 111 58 2
-2 -4 -19 -12 -39 -8 -20 -15 -47 -15 -59 1 -15 7 -4 19 27 36 99 43 116 48
112 2 -3 -5 -28 -17 -56 -11 -28 -20 -74 -20 -102 0 -42 3 -50 17 -47 10 2 20
16 23 33 12 54 168 346 319 594 46 76 57 112 29 95 -6 -4 -8 1 -3 15 3 11 5
21 3 20 -2 0 -15 -6 -30 -12z m-8 -47 c-11 -16 -26 -33 -33 -37 -12 -7 0 11
32 50 23 28 24 20 1 -13z m-450 -329 c0 -30 -43 -84 -85 -108 -55 -31 -60 -29
-33 19 44 80 118 136 118 89z"/>
<path d="M2282 2333 c-7 -10 -10 -12 -7 -6 11 24 -29 1 -74 -41 -84 -79 -230
-293 -216 -316 4 -6 1 -9 -7 -8 -8 2 -13 -6 -12 -19 0 -12 -3 -20 -8 -17 -4 3
-9 -1 -10 -8 0 -7 -2 -17 -3 -23 -2 -5 -3 -16 -4 -23 0 -7 -5 -11 -10 -7 -6 3
-9 -3 -9 -12 1 -10 -8 -38 -19 -63 -35 -77 -93 -238 -93 -259 0 -42 31 -7 77
86 56 112 145 210 260 287 81 54 103 55 103 4 0 -48 -23 -74 -98 -112 -77 -39
-138 -96 -128 -121 4 -12 18 -15 56 -14 27 2 50 6 50 10 0 4 13 12 30 17 41
15 97 67 137 130 18 28 40 52 49 52 8 0 32 8 54 19 l38 18 -5 -33 c-4 -22 -2
-34 6 -34 6 0 11 -7 11 -15 0 -30 34 -14 87 41 30 31 56 54 58 52 2 -1 -3 -28
-11 -58 -8 -30 -14 -78 -14 -108 0 -44 4 -57 26 -77 15 -14 37 -25 50 -25 22
0 76 39 164 120 25 22 76 61 113 86 37 26 66 49 63 52 -3 2 -12 -1 -21 -8 -8
-7 -15 -9 -15 -4 0 4 -7 -1 -15 -12 -8 -10 -15 -15 -15 -11 0 11 -68 -28 -182
-105 -47 -32 -89 -58 -92 -58 -3 0 -6 20 -6 44 0 47 16 123 50 241 21 74 16
94 -18 76 -11 -6 -32 -11 -47 -11 -40 0 -77 -24 -131 -82 -31 -34 -68 -62
-101 -76 -28 -12 -54 -22 -57 -22 -3 0 -6 15 -6 33 0 47 -45 89 -95 89 -20 0
-42 -5 -48 -11 -8 -8 -7 -11 3 -11 8 0 -3 -12 -25 -27 -72 -48 -127 -97 -171
-151 -24 -30 -44 -51 -44 -47 0 4 25 56 56 115 62 122 197 331 241 372 70 66
85 78 99 78 28 0 8 25 -22 28 -19 2 -33 -3 -42 -15z m-22 -16 c0 -2 -10 -12
-22 -23 l-23 -19 19 23 c18 21 26 27 26 19z m340 -320 c0 -2 -19 -21 -42 -42
l-43 -40 40 43 c36 39 45 47 45 39z m-363 -13 c-3 -3 -12 -4 -19 -1 -8 3 -5 6
6 6 11 1 17 -2 13 -5z m-70 -231 c-42 -38 -39 -43 6 -11 20 14 27 16 19 6 -17
-21 -95 -58 -122 -58 -32 0 -12 25 55 70 69 46 94 42 42 -7z"/>
<path d="M1338 2051 c-59 -30 -84 -121 -57 -200 11 -32 10 -34 -40 -78 -97
-85 -145 -182 -104 -213 12 -9 14 -10 6 -1 -28 32 36 141 116 193 40 27 44 23
37 -39 -9 -74 -44 -128 -99 -154 -38 -17 -40 -19 -14 -19 15 0 47 9 72 21 56
27 95 97 95 173 0 39 -3 47 -11 36 -8 -11 -9 -8 -4 15 3 17 17 40 30 51 13 12
21 25 18 28 -4 3 1 6 11 6 9 0 14 5 11 10 -3 6 3 10 14 10 11 0 27 10 35 22 9
12 16 20 16 16 0 -4 12 6 28 21 15 15 38 34 51 44 14 9 22 19 18 23 -3 3 -56
-30 -117 -75 -61 -45 -115 -79 -120 -76 -16 10 -12 83 6 121 18 37 66 69 87
58 9 -5 9 -4 0 6 -18 19 -49 19 -85 1z m-31 -138 c-3 -10 -5 -2 -5 17 0 19 2
27 5 18 2 -10 2 -26 0 -35z m30 -210 c-3 -10 -5 -2 -5 17 0 19 2 27 5 18 2
-10 2 -26 0 -35z m-17 -60 c-11 -17 -11 -17 -6 0 3 10 6 24 7 30 0 9 2 9 5 0
3 -7 0 -20 -6 -30z"/>
<path d="M3651 1594 c-20 -26 -29 -74 -13 -74 20 1 35 21 42 59 8 47 0 52 -29
15z"/>
</g>
</svg>
